<svg version="1.1" id="Layer_1" xmlns="http://www.w3.org/2000/svg" xmlns:xlink="http://www.w3.org/1999/xlink" x="0px" y="0px"
	 width="100%" viewBox="0 0 1024 1008" enable-background="new 0 0 1024 1008" xml:space="preserve">
<path fill="#922424" opacity="1.000000" stroke="none" 
	d="
M500.143616,409.939880 
	C514.265930,410.125336 527.905090,408.838745 541.540588,409.833923 
	C554.488403,410.778931 567.303650,412.793030 580.146667,414.644012 
	C590.241150,416.098938 598.613831,424.403473 599.100586,434.608917 
	C599.322571,439.263885 599.605469,443.903076 599.976685,448.552612 
	C601.555725,468.329315 601.309937,488.127136 600.491333,507.951447 
	C599.900452,522.262207 600.104614,536.612183 600.210083,550.942688 
	C600.263245,558.158142 599.367676,565.221130 597.977783,572.248901 
	C596.459839,579.923462 591.427002,584.126831 583.070557,585.306824 
	C574.154602,586.565796 565.187256,586.800720 556.222717,587.374756 
	C528.626770,589.141846 501.042511,591.165955 473.379059,590.002197 
	C461.602570,589.506714 449.736298,589.994019 438.072388,587.402283 
	C427.463135,585.044922 420.400940,577.463318 418.612305,566.692688 
	C417.046112,557.261475 417.654266,547.747925 417.194489,538.299011 
	C416.379547,521.550171 414.148834,504.824554 414.578247,488.082275 
	C415.011993,471.169220 416.031342,454.185883 418.760345,437.451080 
	C421.072418,423.272919 425.701996,419.017426 439.693848,416.682465 
	C459.556854,413.367767 479.646423,411.964081 500.143616,409.939880 
M552.812561,429.057434 
	C547.989624,443.029114 545.304810,457.490448 542.319336,471.577820 
	C544.591492,473.292328 546.490295,472.769714 548.269104,472.775452 
	C560.428833,472.814758 572.588684,472.780884 584.748535,472.791077 
	C587.407532,472.793304 590.223145,472.493988 591.385010,475.842102 
	C592.489685,479.025574 590.061951,480.231659 588.204651,481.876373 
	C583.217651,486.292572 578.114380,490.604279 573.427734,495.325256 
	C568.564636,500.224030 562.526123,504.026733 558.901367,510.161255 
	C560.541992,512.474182 562.902161,513.471252 564.953247,514.821350 
	C571.629028,519.215637 578.374329,523.504150 585.090210,527.837524 
	C586.502625,528.748840 588.110474,529.632202 587.429688,531.717590 
	C586.807922,533.622009 585.374512,534.744507 583.356812,534.897278 
	C581.867310,535.010071 580.363403,534.950623 578.866150,534.941406 
	C571.040283,534.893250 563.220154,534.916870 555.423401,535.780029 
	C552.532593,536.100159 551.084717,537.343750 550.728699,540.443176 
	C550.250366,544.607300 550.481445,548.764526 550.207886,552.909241 
	C549.956909,556.711670 551.724365,561.680176 547.265503,563.707458 
	C542.809204,565.733582 540.174011,561.206848 537.124573,558.869446 
	C532.834595,555.581177 528.872314,551.830627 523.592346,549.140686 
	C519.426453,559.015991 517.383911,568.948975 513.860291,578.844849 
	C515.801575,578.844849 517.600037,578.877686 519.397034,578.839783 
	C537.024170,578.468140 554.651367,579.284851 572.289551,577.872498 
	C586.228149,576.756470 592.419128,570.948181 592.657227,556.859436 
	C592.854431,545.188660 591.182312,533.598267 591.060547,521.967102 
	C590.886841,505.372162 593.440918,488.872925 593.192566,472.230530 
	C593.010315,460.014618 592.930542,447.739258 587.565308,436.581848 
	C582.318481,425.670624 578.313049,420.816193 565.757446,421.118286 
	C559.152466,421.277222 552.522095,420.120575 545.895081,419.678741 
	C533.127319,418.827515 520.487671,416.465240 507.667084,416.338745 
	C502.132629,416.284149 501.155853,417.954865 504.010498,422.555450 
	C508.927002,430.479004 514.117310,438.232117 519.117188,446.104736 
	C520.879272,448.879242 522.599609,449.255249 525.013672,446.807190 
	C531.900818,439.822815 538.922302,432.970795 545.798767,425.976013 
	C547.180908,424.570068 548.520081,423.434052 550.540833,423.949799 
	C552.752686,424.514282 553.133789,426.280670 552.812561,429.057434 
M504.524597,568.674011 
	C503.669403,564.614136 503.082611,560.522705 501.893860,556.502747 
	C499.701569,549.088989 499.926605,549.143188 492.493042,550.936218 
	C482.168640,553.426636 472.044098,556.964905 461.292236,557.330505 
	C459.043182,557.407043 456.449188,557.942078 455.043457,555.337646 
	C453.632080,552.722717 455.563110,550.908325 456.832397,549.034973 
	C462.353577,540.886475 468.976379,533.597961 475.013580,525.852112 
	C478.785187,521.013123 478.407776,519.661743 473.094238,516.686340 
	C462.489319,510.747986 451.923706,504.737366 441.256073,498.913788 
	C436.223816,496.166626 431.365295,492.980591 425.534576,491.234406 
	C424.551300,498.951141 425.820648,506.225739 425.954956,513.519043 
	C426.212646,527.512634 425.631775,541.546570 426.482635,555.497681 
	C427.419312,570.856750 434.310791,581.700928 451.347534,582.217102 
	C464.841339,582.625916 478.234589,580.837830 491.698120,580.546448 
	C497.602386,580.418701 503.490814,579.559326 510.202545,578.959167 
	C506.776886,576.053467 505.299744,572.984985 504.524597,568.674011 
M469.396667,419.284668 
	C463.801208,418.616028 458.356445,420.051147 453.204010,421.585541 
	C443.978485,424.332916 434.810028,428.469177 431.725098,438.509735 
	C428.024811,450.553101 425.201691,462.936615 425.050171,475.694794 
	C425.027557,477.598602 424.478088,479.723480 426.180695,481.246368 
	C426.616150,481.324463 426.973663,481.504639 427.253998,481.422272 
	C444.208588,476.439941 461.480377,473.084656 479.066895,471.388550 
	C483.969757,470.915710 485.802185,467.859192 486.518951,463.468872 
	C487.294739,458.717072 488.330536,454.008331 489.186066,449.268768 
	C490.691589,440.928589 492.290741,432.601410 493.576569,424.226685 
	C494.605194,417.527130 493.623322,416.667969 486.675476,417.377533 
	C481.219025,417.934723 475.775391,418.616730 469.396667,419.284668 
M515.559875,482.766449 
	C511.754364,481.525513 507.978973,481.915680 505.374237,484.887756 
	C497.193878,494.221802 495.298889,508.006714 503.005798,518.523560 
	C507.073914,524.074951 513.291382,525.485962 520.049500,524.091370 
	C526.452515,522.770203 527.362915,517.468384 528.420776,512.397400 
	C529.391052,507.745941 528.062195,503.128357 527.847412,498.491577 
	C527.483032,490.625885 524.235962,485.138062 515.559875,482.766449 
z"/>
<path fill="#8A8C2A" opacity="1.000000" stroke="none" 
	d="
M576.673340,703.532593 
	C577.840698,711.042786 578.373413,718.135925 578.292786,725.325073 
	C578.240479,729.991272 577.071167,733.905151 573.540833,736.821655 
	C571.841064,738.225952 571.600952,740.191162 570.670776,741.825928 
	C562.680298,741.240479 560.776245,739.469666 558.787354,730.799500 
	C557.036499,723.167053 556.740601,715.342102 555.750488,707.608887 
	C555.586975,706.331848 556.024292,704.909424 554.545837,703.554565 
	C551.195801,704.457825 547.711365,705.942810 543.869141,705.781433 
	C541.139221,705.666687 541.517273,707.946167 541.382751,709.756165 
	C540.611023,720.132507 542.526855,730.282471 544.212769,740.410583 
	C545.370605,747.366455 542.767517,750.386353 535.985596,748.899719 
	C528.340637,747.223877 527.249634,745.309143 526.008850,734.026917 
	C524.316833,718.642273 524.858521,703.326172 525.515686,687.887146 
	C525.980164,676.974976 527.354126,666.354614 530.145874,656.012268 
	C532.660828,646.695679 540.363892,641.020081 548.464111,636.525024 
	C551.938843,634.596802 564.564453,641.183411 565.934387,645.544006 
	C569.309204,656.285950 573.112976,666.956482 573.381470,678.438660 
	C573.576050,686.758179 575.379272,694.897888 576.673340,703.532593 
M552.621948,682.208435 
	C551.220642,674.010071 552.839844,665.499878 550.195435,657.337952 
	C544.389099,666.153748 542.612793,675.695862 543.323364,686.414185 
	C546.991699,685.339905 550.825378,687.247192 552.621948,682.208435 
z"/>
<path fill="#8A8C2A" opacity="1.000000" stroke="none" 
	d="
M538.619690,310.654114 
	C541.689331,302.150513 545.857178,294.517151 548.952454,286.463593 
	C551.414185,280.058441 556.732971,276.175781 560.655884,271.085083 
	C562.286377,268.969147 564.247131,270.996307 566.096313,271.437866 
	C568.194458,271.938873 569.209595,272.896790 569.317749,275.118134 
	C569.564758,280.190308 567.166565,284.601227 565.054321,288.731171 
	C563.332092,292.098450 561.662415,295.375000 560.390381,298.968018 
	C556.632568,309.582886 552.342163,320.056915 548.762878,330.674744 
	C545.642883,339.929962 542.694092,349.274719 539.301697,358.460876 
	C537.591064,363.092957 532.954346,366.601593 528.921082,366.252014 
	C520.363892,365.510406 517.562439,363.524170 516.179993,357.016541 
	C515.525269,353.934174 515.258972,350.760620 514.472595,347.717346 
	C513.766174,344.983551 515.848755,343.921875 517.654602,341.860260 
	C510.792114,338.133820 513.606628,331.468689 512.767029,325.852081 
	C512.546265,324.375580 512.625366,322.454926 515.366333,321.521881 
	C517.793396,320.695709 517.221252,317.126495 515.434937,315.925934 
	C512.549011,313.986359 512.736938,311.370453 512.995483,308.912292 
	C513.937256,299.958832 513.569275,290.992615 513.584534,282.035767 
	C513.595642,275.501984 514.821655,269.128998 515.405762,262.676971 
	C515.629089,260.211060 516.730225,259.572327 518.743958,259.307861 
	C523.830444,258.639954 528.625488,262.531158 529.261719,267.630005 
	C530.242249,275.489014 530.360840,283.401154 530.901794,291.250183 
	C531.299622,297.022186 531.772522,303.086761 533.121826,308.872437 
	C533.684509,311.285461 533.414551,313.443634 532.412109,315.646362 
	C531.517578,317.612152 531.445129,319.485718 533.966309,321.080933 
	C535.517822,317.595764 536.986572,314.296478 538.619690,310.654114 
z"/>
<path fill="#8A8C2A" opacity="1.000000" stroke="none" 
	d="
M724.882874,327.396179 
	C730.990601,342.279480 725.645691,350.682800 712.598633,360.106506 
	C708.108887,363.349457 702.651245,364.672913 697.535156,366.641541 
	C695.816345,367.302948 694.424316,366.631287 692.812927,366.000183 
	C685.078491,362.971191 680.119141,366.596619 681.420654,374.570923 
	C682.244812,379.620148 681.709229,384.465912 681.201599,389.437958 
	C680.273865,398.525391 679.770386,407.655518 678.920471,416.751984 
	C678.671448,419.417999 679.241516,423.400726 675.723816,423.740662 
	C672.702637,424.032654 669.945129,421.558319 668.242920,418.709778 
	C666.337524,415.521149 666.491150,411.973541 666.900024,408.494446 
	C667.965759,399.427551 669.413574,390.398956 670.229736,381.312042 
	C670.674133,376.363403 672.627747,371.210510 669.457703,365.688751 
	C664.062866,371.096436 660.443359,377.345123 656.571167,383.375122 
	C654.506165,386.590942 652.856140,390.070740 650.855957,393.331512 
	C649.395935,395.711731 647.219360,396.739624 644.452026,395.590210 
	C641.689514,394.442841 642.399109,392.207062 642.195068,389.802490 
	C641.541565,382.100281 647.849243,378.031799 650.996399,372.570282 
	C660.502747,356.072784 669.665710,339.188690 682.538818,324.939484 
	C689.957031,316.728363 698.858521,311.418823 710.833069,314.451935 
	C717.870911,316.234589 721.688232,321.087006 724.882874,327.396179 
M718.626465,336.222595 
	C719.543457,331.324493 717.913147,328.347412 713.383972,327.239410 
	C706.978455,325.672363 701.270447,326.390625 696.914856,332.201660 
	C694.231750,335.781372 690.967224,338.919647 688.120972,342.385254 
	C686.827881,343.959564 684.800232,345.269897 685.171570,347.787354 
	C695.747375,351.049164 710.554260,346.133789 718.626465,336.222595 
z"/>
<path fill="#8A8C2A" opacity="1.000000" stroke="none" 
	d="
M599.032227,659.923096 
	C597.394592,649.703735 598.690796,640.626099 606.010071,633.260803 
	C613.247375,625.977966 621.520142,624.659058 631.708130,628.934265 
	C640.794067,632.747070 645.111816,639.353943 645.476868,649.418884 
	C645.812195,658.666382 642.833862,666.707031 639.176147,674.773010 
	C637.356262,678.786255 632.386414,678.984619 630.076416,682.890015 
	C628.144409,686.156250 627.506348,688.097290 630.814575,690.175232 
	C642.385315,697.443115 648.350281,710.017212 658.140869,718.976440 
	C660.458496,721.097412 662.454590,723.605408 664.393188,726.095276 
	C666.515076,728.820618 666.112732,730.762573 662.519226,732.056946 
	C656.880310,734.087952 652.754822,731.923584 649.310059,727.794739 
	C642.488525,719.618591 635.863953,711.277527 629.011658,703.127686 
	C626.274597,699.872375 623.852783,696.129883 619.157104,694.564941 
	C617.584167,697.795349 619.216614,700.824219 619.777832,703.655334 
	C621.101624,710.333435 623.071899,716.882446 624.747131,723.492249 
	C625.195740,725.262207 625.799133,727.055054 625.848206,728.850647 
	C625.940552,732.227844 622.639771,734.845337 619.936890,733.795532 
	C617.697083,732.925659 613.504700,725.389893 613.614990,722.747437 
	C613.661743,721.628906 613.313538,720.465454 612.998169,719.364380 
	C607.426819,699.914185 601.342957,680.585571 599.032227,659.923096 
M614.487610,661.999634 
	C614.578064,665.122559 614.900635,668.194824 616.193542,671.097107 
	C627.427307,666.827759 633.722839,647.289856 631.694214,639.461487 
	C630.783569,635.947083 627.045898,634.319214 623.246155,635.568176 
	C617.226318,637.547058 612.918884,644.293457 613.536743,650.767578 
	C613.868530,654.243225 614.191956,657.719666 614.487610,661.999634 
z"/>
<path fill="#8A8C2A" opacity="1.000000" stroke="none" 
	d="
M443.624268,734.868835 
	C443.665710,717.731506 444.542084,701.097168 446.597260,684.590027 
	C448.032654,673.060669 451.942871,662.007935 455.406494,650.678406 
	C449.633972,646.072937 440.692871,645.422729 437.804932,636.618896 
	C443.405121,634.532654 448.631104,636.273376 453.661987,637.163330 
	C462.841400,638.787292 471.896057,641.051819 481.311676,640.997009 
	C488.629425,640.954407 493.946259,645.193970 499.035156,649.730286 
	C499.707031,650.329224 500.466888,651.963074 500.181824,652.323608 
	C497.773529,655.369263 499.478882,659.706299 496.694092,662.625305 
	C493.612946,665.854919 490.086029,666.437744 485.778656,665.840027 
	C480.570770,665.117493 475.863037,663.341431 471.559662,660.437683 
	C470.070312,662.375183 471.246674,663.680664 471.816895,664.887146 
	C473.048218,667.492554 472.882111,670.041504 472.007996,672.643372 
	C469.094482,681.315308 467.116150,689.956421 467.966217,699.377747 
	C468.962280,710.417053 464.117920,720.839661 462.791168,731.692017 
	C462.305145,735.667664 461.101013,739.374878 459.710236,743.152222 
	C458.507629,746.418396 456.808258,747.268066 453.857269,747.092041 
	C452.195068,746.992981 450.534821,746.860291 448.873901,746.740234 
	C444.878448,746.451477 442.733185,744.753174 443.607819,740.337463 
	C443.924988,738.736328 443.640442,737.015930 443.624268,734.868835 
z"/>
<path fill="#8A8C2A" opacity="1.000000" stroke="none" 
	d="
M605.368896,343.314087 
	C603.842224,349.851807 601.864624,355.873657 602.152588,362.335083 
	C602.277039,365.129181 603.284851,366.530518 606.088928,367.093048 
	C610.736633,368.025421 615.374573,369.008972 620.460388,369.214722 
	C613.298645,380.237976 594.945251,381.814087 587.226501,372.586212 
	C584.169006,368.930939 583.884399,364.302643 583.813721,359.815735 
	C583.632263,348.306702 587.221558,337.625580 590.801147,326.830963 
	C596.881042,308.496277 608.217285,293.259827 618.550964,277.395905 
	C619.614441,275.763367 620.936951,274.510620 623.093628,275.257172 
	C628.412048,277.098206 633.929932,276.476837 639.387146,276.705109 
	C643.371887,276.871796 648.471375,276.748352 649.644775,281.043732 
	C650.610413,284.578369 645.380249,285.400238 643.016907,287.480225 
	C639.549316,290.531982 635.069763,291.802917 630.423889,291.167389 
	C625.758789,290.529266 623.242065,292.528961 621.875610,296.751556 
	C619.936829,302.742493 617.881653,308.695709 615.749878,315.041138 
	C624.648010,317.805817 634.443909,315.897614 642.625427,320.986633 
	C636.576660,330.303650 623.934021,335.925659 614.000427,333.635406 
	C609.780273,332.662415 607.645081,334.191711 606.637573,338.065399 
	C606.218750,339.675781 605.826660,341.293121 605.368896,343.314087 
z"/>
<path fill="#8A8C2A" opacity="1.000000" stroke="none" 
	d="
M373.544342,679.263123 
	C369.428955,668.315918 366.190094,657.535889 370.705658,646.390930 
	C374.437103,637.181274 379.499908,628.740967 391.022949,628.321838 
	C395.724823,628.150757 400.288971,630.006104 404.482147,632.123474 
	C407.534698,633.664917 409.145050,636.669250 410.241760,639.670898 
	C408.975800,641.890503 407.025604,641.864990 405.302948,642.304810 
	C401.087189,643.380859 396.965729,644.685730 393.441467,647.373718 
	C385.652039,653.314819 383.829651,660.070251 387.030792,669.852905 
	C389.946167,678.762329 394.746277,686.815430 398.302368,695.428650 
	C402.078217,704.574341 402.724518,714.139648 402.128815,723.854248 
	C401.845032,728.482117 399.350250,731.757385 394.970795,733.130066 
	C382.281738,737.107178 369.873932,737.557678 358.202118,729.735046 
	C355.574005,727.973633 355.246002,726.330200 357.542816,724.212219 
	C359.523834,722.385498 361.763580,720.996216 364.365692,720.173950 
	C379.619232,715.354065 383.439392,708.129639 379.079712,692.509399 
	C377.816772,687.984375 375.765625,683.800110 373.544342,679.263123 
z"/>
<path fill="#8A8C2A" opacity="1.000000" stroke="none" 
	d="
M345.581482,421.356018 
	C340.041870,418.381836 342.881805,414.204071 344.039581,410.689362 
	C345.170471,407.256226 347.159607,404.144470 347.676941,400.412994 
	C348.491516,394.538208 346.326538,390.012268 341.945587,386.353729 
	C336.241302,381.590088 329.686829,378.500885 322.616699,376.272644 
	C314.943909,373.854492 307.926880,370.167358 301.789185,364.816101 
	C294.833466,358.751587 291.747375,350.870575 290.739410,342.042023 
	C289.791840,333.742554 293.528839,329.071991 300.692963,323.965698 
	C305.027618,320.876099 308.991852,320.416290 313.577942,320.765350 
	C316.630432,320.997711 317.684662,322.649414 315.961243,325.528625 
	C313.471771,329.687500 311.438385,334.005188 310.637817,338.874908 
	C309.346893,346.727386 312.317535,353.208527 319.187286,357.292480 
	C328.603699,362.890411 339.422852,364.719604 349.434814,368.692719 
	C358.497589,372.289093 366.349579,377.734558 372.683472,385.304474 
	C376.058624,389.338257 375.973419,393.533539 373.818451,397.854309 
	C367.929596,409.661865 359.473969,418.508148 345.581482,421.356018 
z"/>
<path fill="#8A8C2A" opacity="1.000000" stroke="none" 
	d="
M419.640411,302.302490 
	C417.388428,290.951477 415.374054,280.040802 415.371857,268.809479 
	C415.371094,265.044128 416.402374,264.538300 419.670746,265.322083 
	C426.571930,266.977112 431.406799,269.670166 432.656067,277.972809 
	C434.648224,291.212799 438.453613,304.143188 440.487305,317.446136 
	C441.390137,323.351746 442.839264,329.545044 446.481415,334.672913 
	C448.827637,337.976257 449.322968,342.027527 451.507996,345.452881 
	C456.938812,353.966492 464.798157,357.159424 474.631226,354.211151 
	C478.274384,353.118805 481.749390,351.502991 485.727753,351.602478 
	C489.387329,351.694000 490.409943,353.522705 489.872711,356.747711 
	C489.173767,360.943726 487.083221,364.216461 483.173187,366.075592 
	C469.141235,372.747437 443.178864,369.804810 433.054565,351.937347 
	C425.576782,338.740479 423.159271,324.882812 420.672150,310.645630 
	C420.215637,308.032227 419.993774,305.377808 419.640411,302.302490 
z"/>
<path fill="#8A8C2A" opacity="1.000000" stroke="none" 
	d="
M380.710785,352.169800 
	C376.783539,343.468048 376.134460,334.065063 371.759277,325.916260 
	C370.844269,324.212158 372.039429,322.761536 373.480927,322.346405 
	C377.473206,321.196777 381.747040,319.856354 385.095154,323.685242 
	C396.783020,337.051514 406.817719,351.487396 412.255859,368.595001 
	C415.223999,377.932220 413.507477,383.015167 406.881714,387.347443 
	C402.361267,390.303223 400.658356,389.968628 397.402069,385.453217 
	C390.127167,375.365204 385.375061,364.006317 380.710785,352.169800 
z"/>
<text x="509" y="222" text-anchor="middle" fill="#8A8C2A" font-family="Georgia, serif" font-size="13" letter-spacing="3" font-weight="normal">EST 2026</text>
<path fill="#8A8C2A" opacity="1.000000" stroke="none" 
	d="
M362.616638,299.291656 
	C369.753357,296.787598 379.170441,303.234283 379.288330,310.261871 
	C379.338470,313.250580 378.833252,315.923492 375.635529,317.207001 
	C372.432373,318.492706 369.601379,317.629791 367.500610,315.195251 
	C364.798615,312.063965 362.341675,308.699921 360.003387,305.282715 
	C358.061707,302.445099 361.211884,301.319153 362.616638,299.291656 
z"/>
<text x="509" y="800" text-anchor="middle" fill="#8A8C2A" font-family="Georgia, serif" font-size="13" letter-spacing="3" font-weight="normal">RING CO</text>
</svg>