<svg xmlns="http://www.w3.org/2000/svg" viewBox="410 405 195 190">
<path fill="#922424" d="
M500.143616,409.939880
	C514.265930,410.125336 527.905090,408.838745 541.540588,409.833923
	C554.488403,410.778931 567.303650,412.793030 580.146667,414.644012
	C590.241150,416.098938 598.613831,424.403473 599.100586,434.608917
	C599.322571,439.263885 599.605469,443.903076 599.976685,448.552612
	C601.555725,468.329315 601.309937,488.127136 600.491333,507.951447
	C599.900452,522.262207 600.104614,536.612183 600.210083,550.942688
	C600.263245,558.158142 599.367676,565.221130 597.977783,572.248901
	C596.459839,579.923462 591.427002,584.126831 583.070557,585.306824
	C574.154602,586.565796 565.187256,586.800720 556.222717,587.374756
	C528.626770,589.141846 501.042511,591.165955 473.379059,590.002197
	C461.602570,589.506714 449.736298,589.994019 438.072388,587.402283
	C427.463135,585.044922 420.400940,577.463318 418.612305,566.692688
	C417.046112,557.261475 417.654266,547.747925 417.194489,538.299011
	C416.379547,521.550171 414.148834,504.824554 414.578247,488.082275
	C415.011993,471.169220 416.031342,454.185883 418.760345,437.451080
	C421.072418,423.272919 425.701996,419.017426 439.693848,416.682465
	C459.556854,413.367767 479.646423,411.964081 500.143616,409.939880
M552.812561,429.057434
	C547.989624,443.029114 545.304810,457.490448 542.319336,471.577820
	C544.591492,473.292328 546.490295,472.769714 548.269104,472.775452
	C560.428833,472.814758 572.588684,472.780884 584.748535,472.791077
	C587.407532,472.793304 590.223145,472.493988 591.385010,475.842102
	C592.489685,479.025574 590.061951,480.231659 588.204651,481.876373
	C583.217651,486.292572 578.114380,490.604279 573.427734,495.325256
	C568.564636,500.224030 562.526123,504.026733 558.901367,510.161255
	C560.541992,512.474182 562.902161,513.471252 564.953247,514.821350
	C571.629028,519.215637 578.374329,523.504150 585.090210,527.837524
	C586.502625,528.748840 588.110474,529.632202 587.429688,531.717590
	C586.807922,533.622009 585.374512,534.744507 583.356812,534.897278
	C581.867310,535.010071 580.363403,534.950623 578.866150,534.941406
	C571.040283,534.893250 563.220154,534.916870 555.423401,535.780029
	C552.532593,536.100159 551.084717,537.343750 550.728699,540.443176
	C550.250366,544.607300 550.481445,548.764526 550.207886,552.909241
	C549.956909,556.711670 551.724365,561.680176 547.265503,563.707458
	C542.809204,565.733582 540.174011,561.206848 537.124573,558.869446
	C532.834595,555.581177 528.872314,551.830627 523.592346,549.140686
	C519.426453,559.015991 517.383911,568.948975 513.860291,578.844849
	C515.801575,578.844849 517.600037,578.877686 519.397034,578.839783
	C537.024170,578.468140 554.651367,579.284851 572.289551,577.872498
	C586.228149,576.756470 592.419128,570.948181 592.657227,556.859436
	C592.854431,545.188660 591.182312,533.598267 591.060547,521.967102
	C590.886841,505.372162 593.440918,488.872925 593.192566,472.230530
	C593.010315,460.014618 592.930542,447.739258 587.565308,436.581848
	C582.318481,425.670624 578.313049,420.816193 565.757446,421.118286
	C559.152466,421.277222 552.522095,420.120575 545.895081,419.678741
	C533.127319,418.827515 520.487671,416.465240 507.667084,416.338745
	C502.132629,416.284149 501.155853,417.954865 504.010498,422.555450
	C508.927002,430.479004 514.117310,438.232117 519.117188,446.104736
	C520.879272,448.879242 522.599609,449.255249 525.013672,446.807190
	C531.900818,439.822815 538.922302,432.970795 545.798767,425.976013
	C547.180908,424.570068 548.520081,423.434052 550.540833,423.949799
	C552.752686,424.514282 553.133789,426.280670 552.812561,429.057434
M504.524597,568.674011
	C503.669403,564.614136 503.082611,560.522705 501.893860,556.502747
	C499.701569,549.088989 499.926605,549.143188 492.493042,550.936218
	C482.168640,553.426636 472.044098,556.964905 461.292236,557.330505
	C459.043182,557.407043 456.449188,557.942078 455.043457,555.337646
	C453.632080,552.722717 455.563110,550.908325 456.832397,549.034973
	C462.353577,540.886475 468.976379,533.597961 475.013580,525.852112
	C478.785187,521.013123 478.407776,519.661743 473.094238,516.686340
	C462.489319,510.747986 451.923706,504.737366 441.256073,498.913788
	C436.223816,496.166626 431.365295,492.980591 425.534576,491.234406
	C424.551300,498.951141 425.820648,506.225739 425.954956,513.519043
	C426.212646,527.512634 425.631775,541.546570 426.482635,555.497681
	C427.419312,570.856750 434.310791,581.700928 451.347534,582.217102
	C464.841339,582.625916 478.234589,580.837830 491.698120,580.546448
	C497.602386,580.418701 503.490814,579.559326 510.202545,578.959167
	C506.776886,576.053467 505.299744,572.984985 504.524597,568.674011
M469.396667,419.284668
	C463.801208,418.616028 458.356445,420.051147 453.204010,421.585541
	C443.978485,424.332916 434.810028,428.469177 431.725098,438.509735
	C428.024811,450.553101 425.201691,462.936615 425.050171,475.694794
	C425.027557,477.598602 424.478088,479.723480 426.180695,481.246368
	C426.616150,481.324463 426.973663,481.504639 427.253998,481.422272
	C444.208588,476.439941 461.480377,473.084656 479.066895,471.388550
	C483.969757,470.915710 485.802185,467.859192 486.518951,463.468872
	C487.294739,458.717072 488.330536,454.008331 489.186066,449.268768
	C490.691589,440.928589 492.290741,432.601410 493.576569,424.226685
	C494.605194,417.527130 493.623322,416.667969 486.675476,417.377533
	C481.219025,417.934723 475.775391,418.616730 469.396667,419.284668
M515.559875,482.766449
	C511.754364,481.525513 507.978973,481.915680 505.374237,484.887756
	C497.193878,494.221802 495.298889,508.006714 503.005798,518.523560
	C507.073914,524.074951 513.291382,525.485962 520.049500,524.091370
	C526.452515,522.770203 527.362915,517.468384 528.420776,512.397400
	C529.391052,507.745941 528.062195,503.128357 527.847412,498.491577
	C527.483032,490.625885 524.235962,485.138062 515.559875,482.766449
z"/>
</svg>
